<?xml version="1.0" encoding="utf-8"?>
<!-- Generator: Adobe Illustrator 19.0.0, SVG Export Plug-In . SVG Version: 6.00 Build 0)  -->
<svg version="1.1" id="Layer_1" xmlns="http://www.w3.org/2000/svg" xmlns:xlink="http://www.w3.org/1999/xlink" x="0px" y="0px"
	 viewBox="0 0 400 400" style="enable-background:new 0 0 400 400;" xml:space="preserve">
<style type="text/css">
	.st0{fill:#137286;}
	.st1{fill:#FFFFFF;}
	.st2{fill:#D73925;}
</style>
<path class="st0" d="M258.4,369c23.7-7.9,46.1-21,65.2-39.1L172.4,195l-0.9,1.1c0,0,0.1,0.1-46.8,52.7c-0.1,0.2-0.3,0.3-0.4,0.5l0,0
	c-29.1,32.4-56.9,37.5-77.6,34.4c9.6,18.3,22.5,35.1,38.8,49.7C134.2,376.8,200.5,388.2,258.4,369L258.4,369z"/>
<path class="st0" d="M375.4,236.1c10.8-54.8-4.7-113.3-45.4-155.8c-13.6-6.2-45-11.4-87.6,36.3c-0.1,0.2-0.3,0.3-0.4,0.5l0,0
	c-31.8,35.6-43,48.1-46.6,52.2l150.8,134.6C361,283.1,370.7,260,375.4,236.1L375.4,236.1z"/>
<path class="st1" d="M134.3,102c-11.8-10.6-29.9-9.6-40.6,2c-0.1,0.1-0.2,0.2-0.3,0.3c-10.7,11.9-9.6,30.3,2.3,40.9
	c11.9,10.7,30.3,9.6,40.9-2.3c0.1-0.1,0.2-0.2,0.3-0.3l0,0C147.2,130.6,146.1,112.5,134.3,102z"/>
<path class="st1" d="M195.4,169.3C195,169.7,195,169.7,195.4,169.3c3.6-4.1,14.8-16.5,46.6-52.2c0.1-0.2,0.3-0.3,0.4-0.5
	c42.6-47.7,74-42.4,87.6-36.3c-3.2-3.3-6.6-6.6-10.1-9.7c-11.1-9.9-23-18.1-35.6-24.7c-27.6,2.3-67.6,47.8-67.6,47.8l-0.4,0.5v0
	l-58.8,65.9c0,0,0.1,0-0.4,0.5c-1.6,2.1-10.5,12.7-57.7,65.6c-0.1,0.2-0.3,0.3-0.4,0.5c-19.8,21.8-42.9,27.7-65.1,25.6
	c3.2,10.8,7.4,21.2,12.7,31.3c20.7,3.1,48.5-2,77.6-34.4c0.1-0.2,0.3-0.3,0.4-0.5c46.9-52.6,46.8-52.7,46.8-52.7l0.9-1.1l0,0
	c0,0,0.6-0.7,1.6-1.8h0l-1.6,1.8l151.2,134.9c3.6-3.4,7.1-7,10.4-10.7c0.1-0.1,0.2-0.3,0.3-0.4c4.3-4.8,8.2-9.8,11.9-14.9
	L195.4,169.3z M194,170.8C194,170.8,194,170.8,194,170.8C194,170.8,194,170.8,194,170.8c0-0.1,0.1-0.1,0.1-0.1L194,170.8z
	 M194.2,170.5C194.2,170.5,194.2,170.6,194.2,170.5C194.2,170.6,194.2,170.6,194.2,170.5L194.2,170.5
	C194.2,170.5,194.2,170.5,194.2,170.5C194.2,170.5,194.2,170.5,194.2,170.5L194.2,170.5C194.3,170.5,194.3,170.5,194.2,170.5
	c0.1-0.1,0.1-0.1,0.1-0.2c0,0,0,0,0,0C194.3,170.4,194.3,170.5,194.2,170.5z"/>
<path class="st2" d="M149.1,34.2L149.1,34.2c-28.9,9.2-55.8,26-77.5,50.1v0c-0.1,0.1-0.2,0.2-0.3,0.4
	c-21.2,23.8-34.8,51.7-40.9,80.8l0,0c-6.1,28.8-4.8,58.7,3.6,86.9c22.2,2,45.3-3.8,65.1-25.6l0,0c0.1-0.2,0.3-0.3,0.4-0.5
	c47.2-52.9,56.1-63.5,57.7-65.6h0c0.4-0.6,0.4-0.5,0.4-0.5l58.8-65.9v0l0.4-0.5c0,0,40-45.5,67.6-47.8
	C242.2,23.8,193.3,20.1,149.1,34.2z M95.7,145.3c-11.9-10.7-13-29-2.3-40.9c0.1-0.1,0.2-0.2,0.3-0.3l-3.1-2.8l0,0l3.1,2.8
	c10.7-11.6,28.8-12.6,40.6-2c11.8,10.6,13,28.7,2.6,40.6l0,0c-0.1,0.1-0.2,0.2-0.3,0.3C125.9,154.9,107.6,155.9,95.7,145.3z"/>
</svg>
